<?xml version="1.0" standalone="no"?>
<!DOCTYPE svg PUBLIC "-//W3C//DTD SVG 20010904//EN"
 "http://www.w3.org/TR/2001/REC-SVG-20010904/DTD/svg10.dtd">
<svg version="1.0" xmlns="http://www.w3.org/2000/svg"
 width="100.000000pt" height="100.000000pt" viewBox="0 0 100.000000 100.000000"
 preserveAspectRatio="xMidYMid meet">
<metadata>
Created by potrace 1.14, written by Peter Selinger 2001-2017
</metadata>
<g transform="translate(0.000000,100.000000) scale(0.100000,-0.100000)"
fill="#000000" stroke="none">
<path d="M162 915 c-75 -41 -102 -92 -102 -190 0 -68 18 -135 36 -135 2 0 0 9
-6 19 -13 25 -13 135 1 184 11 42 62 82 118 93 45 9 70 -22 71 -87 0 -38 -7
-58 -36 -100 -49 -73 -65 -105 -80 -164 -27 -100 -12 -215 34 -258 46 -43 99
-67 150 -67 26 0 56 -7 66 -15 11 -8 31 -15 44 -15 40 0 63 -18 56 -45 -4 -18
0 -27 22 -42 16 -10 39 -28 51 -39 13 -12 35 -24 48 -26 31 -6 32 0 3 12 -31
12 -2 13 40 1 20 -6 30 -6 27 0 -4 5 -13 9 -21 9 -8 0 -14 7 -14 15 0 18 4 18
48 6 37 -11 43 -5 10 9 -20 9 -19 10 9 7 44 -5 32 9 -14 17 -46 8 -143 56
-150 74 -9 21 8 29 68 35 51 5 56 4 52 -13 -3 -12 4 -24 24 -37 15 -10 35 -26
43 -36 8 -9 30 -21 48 -26 37 -11 43 -5 10 9 -31 12 -2 13 40 1 20 -6 30 -6
27 0 -4 5 -13 9 -21 9 -8 0 -14 7 -14 15 0 17 13 19 58 6 37 -11 43 -5 10 10
-22 9 -21 9 4 6 41 -6 24 10 -19 17 -41 7 -143 56 -143 68 0 4 29 37 65 74 73
75 80 101 38 134 -39 30 -77 20 -135 -37 -42 -41 -48 -44 -54 -27 -11 30 -56
74 -76 74 -10 0 -18 3 -18 8 0 4 21 7 47 7 44 0 48 2 50 27 1 19 -7 34 -27 51
-21 18 -26 27 -17 36 17 17 94 14 101 -4 4 -11 -2 -15 -22 -16 l-27 -1 30 -8
c28 -7 29 -8 5 -10 -24 -2 -24 -2 4 -10 16 -5 45 -8 65 -7 31 2 36 5 38 29 1
20 -7 34 -29 53 -27 23 -36 25 -80 19 -36 -5 -52 -3 -58 6 -12 19 -1 40 20 40
10 0 20 4 22 8 2 4 20 18 41 30 21 12 35 18 32 12 -10 -17 7 -11 20 7 14 20
38 8 31 -15 -3 -10 -1 -24 5 -32 8 -12 9 -11 5 5 -3 11 -1 27 4 35 7 12 10 11
16 -5 10 -28 35 -55 50 -55 19 0 32 29 35 80 l4 45 -48 15 c-47 15 -47 15 -31
40 13 21 11 20 -9 -3 -20 -24 -25 -26 -30 -13 -4 9 -4 24 -1 34 5 14 4 15 -5
2 -6 -8 -8 -23 -5 -32 4 -13 0 -18 -14 -18 -21 0 -62 31 -62 47 0 16 -80 65
-96 59 -21 -8 -29 -37 -13 -47 8 -5 10 -9 5 -9 -6 0 -19 9 -31 20 -12 12 -39
23 -59 27 -36 6 -36 5 -36 -30 0 -24 6 -40 19 -49 18 -13 15 -17 -46 -68 -82
-69 -102 -97 -109 -153 -6 -38 -4 -47 14 -56 11 -6 22 -24 24 -43 3 -18 8 -40
12 -49 5 -12 1 -18 -17 -23 -30 -7 -51 -54 -45 -97 l5 -31 -41 5 c-29 4 -49
15 -70 38 -27 31 -28 35 -24 108 4 58 12 92 37 143 18 37 36 70 41 73 5 3 12
34 15 69 6 50 3 71 -10 100 -33 69 -95 94 -153 61z"/>
<path d="M894 838 l-19 -23 23 19 c21 18 27 26 19 26 -2 0 -12 -10 -23 -22z"/>
<path d="M795 714 c-9 -14 -15 -27 -13 -30 2 -2 12 10 22 26 21 37 15 40 -9 4z"/>
</g>
</svg>
