<svg id="Ebene_1" data-name="Ebene 1" xmlns="http://www.w3.org/2000/svg" viewBox="0 0 98 14"><defs><style>.cls-1{fill:#22456d;}.cls-2{fill:#fff;}</style></defs><rect class="cls-1" width="38" height="14"/><path class="cls-1" d="M589,417h-4v-4h-2v4h-4v-9h1v-1h8v1h1Zm-4-6v-2h-2v2Z" transform="translate(-539 -405)"/><path class="cls-1" d="M601,417H591V407h4v8h6Z" transform="translate(-539 -405)"/><path class="cls-1" d="M613,417h-9v-1h-1v-8h1v-1h9v2h-6v2h3v2h-3v2h6Z" transform="translate(-539 -405)"/><path class="cls-1" d="M625,417h-4v-4h-2v4h-4V407h9v1h1v3h-1v2h1Zm-4-6v-2h-2v2Z" transform="translate(-539 -405)"/><path class="cls-1" d="M637,409h-3v8h-4v-8h-3v-2h10Z" transform="translate(-539 -405)"/><path class="cls-2" d="M551,417h-4v-4h-2v4h-4V407h9v1h1v3h-1v2h1Zm-4-6v-2h-2v2Z" transform="translate(-539 -405)"/><path class="cls-2" d="M563,417h-4v-4h-2v4h-4v-9h1v-1h8v1h1Zm-4-6v-2h-2v2Z" transform="translate(-539 -405)"/><path class="cls-2" d="M575,409h-3v8h-4v-8h-3v-2h10Z" transform="translate(-539 -405)"/></svg>