<?xml version="1.0" encoding="UTF-8" standalone="no"?>
<svg
   width="14"
   height="13"
   viewBox="0 0 14 13"
   version="1.1"
   id="svg11"
   sodipodi:docname="down-arrow-pink.svg"
   inkscape:version="1.1.2 (b8e25be8, 2022-02-05)"
   xmlns:inkscape="http://www.inkscape.org/namespaces/inkscape"
   xmlns:sodipodi="http://sodipodi.sourceforge.net/DTD/sodipodi-0.dtd"
   xmlns="http://www.w3.org/2000/svg"
   xmlns:svg="http://www.w3.org/2000/svg">
  <defs
     id="defs15" />
  <sodipodi:namedview
     id="namedview13"
     pagecolor="#ffffff"
     bordercolor="#666666"
     borderopacity="1.0"
     inkscape:pageshadow="2"
     inkscape:pageopacity="0.0"
     inkscape:pagecheckerboard="0"
     showgrid="false"
     inkscape:zoom="55.307692"
     inkscape:cx="6.9972184"
     inkscape:cy="6.716968"
     inkscape:window-width="1383"
     inkscape:window-height="969"
     inkscape:window-x="0"
     inkscape:window-y="44"
     inkscape:window-maximized="0"
     inkscape:current-layer="svg11" />
  <path
     d="M13.25 13V2h-2v7.25h-.75V8H9V6.5H7.75V5.25H6.5V4H5V2.5H3.75V1.25H2.5V0H0v2.5h1.25v1.25H2.5V5H4v1.5h1.25v1.25H6.5V9H8v1.5h1.25v.5h-7v2h11z"
     fill="#F0F"
     fill-rule="nonzero"
     id="path9" />
  <path
     style="fill:#000000;stroke-width:0.0180807"
     d="m 2.2510431,12.005563 v -0.994436 h 3.5076495 3.5076495 v -0.26217 -0.26217 H 8.6335188 8.0006954 V 9.7364395 8.9860918 H 7.2503477 6.5 V 8.3623088 7.7385257 H 5.876217 5.2524339 V 7.1147427 6.4909597 H 4.6286509 4.0048679 V 5.740612 4.9902643 H 3.2545202 2.5041725 V 4.3664812 3.7426982 H 1.8803894 1.2566064 V 3.1189152 2.4951321 H 0.63282337 0.00904033 V 1.2475661 0 H 1.2475661 2.4860918 V 0.63282337 1.2656467 h 0.623783 0.6237831 v 0.6237831 0.623783 H 4.3664812 4.9993046 V 3.2635605 4.0139082 H 5.7496523 6.5 v 0.623783 0.6237831 h 0.623783 0.6237831 v 0.623783 0.623783 h 0.623783 0.623783 V 7.259388 8.0097357 h 0.7503477 0.7503482 v 0.6237831 0.623783 h 0.379694 0.379694 V 5.632128 2.0069541 h 0.994436 0.994437 V 7.5034771 13 H 7.7475661 2.2510431 Z"
     id="path210" />
</svg>
