<?xml version="1.0" encoding="UTF-8"?>
<svg width="9px" height="10px" viewBox="0 0 9 10" version="1.1" xmlns="http://www.w3.org/2000/svg" xmlns:xlink="http://www.w3.org/1999/xlink">
    <title>percentage</title>
    <g id="Page-2" stroke="none" stroke-width="1" fill="none" fill-rule="evenodd">
        <g id="-" transform="translate(-7.000000, -8.000000)" fill="#000000">
            <g id="percentage" transform="translate(7.000000, 8.000000)">
                <rect id="Rectangle" x="2" y="6" width="1" height="1"></rect>
                <rect id="Rectangle" x="2" y="6" width="1" height="1"></rect>
                <rect id="Rectangle" x="3" y="5" width="1" height="1"></rect>
                <rect id="Rectangle" x="2" y="7" width="1" height="1"></rect>
                <rect id="Rectangle" x="3" y="6" width="1" height="1"></rect>
                <rect id="Rectangle" x="0" y="8" width="1" height="1"></rect>
                <rect id="Rectangle" x="1" y="7" width="1" height="1"></rect>
                <rect id="Rectangle" x="0" y="9" width="1" height="1"></rect>
                <rect id="Rectangle" x="1" y="8" width="1" height="1"></rect>
                <rect id="Rectangle" x="6" y="2" width="1" height="1"></rect>
                <rect id="Rectangle" x="6" y="2" width="1" height="1"></rect>
                <rect id="Rectangle" x="7" y="1" width="1" height="1"></rect>
                <rect id="Rectangle" x="6" y="3" width="1" height="1"></rect>
                <rect id="Rectangle" x="7" y="2" width="1" height="1"></rect>
                <rect id="Rectangle" x="8" y="0" width="1" height="1"></rect>
                <rect id="Rectangle" x="8" y="1" width="1" height="1"></rect>
                <rect id="Rectangle" x="4" y="4" width="1" height="1"></rect>
                <rect id="Rectangle" x="5" y="3" width="1" height="1"></rect>
                <rect id="Rectangle" x="4" y="5" width="1" height="1"></rect>
                <rect id="Rectangle" x="5" y="4" width="1" height="1"></rect>
                <rect id="Rectangle" x="2" y="3" width="1" height="1"></rect>
                <rect id="Rectangle" x="3" y="2" width="1" height="1"></rect>
                <rect id="Rectangle" x="3" y="2" width="1" height="1"></rect>
                <rect id="Rectangle" x="3" y="1" width="1" height="1"></rect>
                <rect id="Rectangle" x="2" y="0" width="1" height="1"></rect>
                <rect id="Rectangle" x="1" y="0" width="1" height="1"></rect>
                <rect id="Rectangle" x="0" y="1" width="1" height="1"></rect>
                <rect id="Rectangle" x="0" y="2" width="1" height="1"></rect>
                <rect id="Rectangle" x="1" y="3" width="1" height="1"></rect>
                <rect id="Rectangle" x="7" y="9" width="1" height="1"></rect>
                <rect id="Rectangle" x="8" y="8" width="1" height="1"></rect>
                <rect id="Rectangle" x="8" y="8" width="1" height="1"></rect>
                <rect id="Rectangle" x="8" y="7" width="1" height="1"></rect>
                <rect id="Rectangle" x="7" y="6" width="1" height="1"></rect>
                <rect id="Rectangle" x="6" y="6" width="1" height="1"></rect>
                <rect id="Rectangle" x="5" y="7" width="1" height="1"></rect>
                <rect id="Rectangle" x="5" y="8" width="1" height="1"></rect>
                <rect id="Rectangle" x="6" y="9" width="1" height="1"></rect>
            </g>
        </g>
    </g>
</svg>