<svg width="30" height="30" viewBox="0 0 30 30" xmlns="http://www.w3.org/2000/svg">
    <path d="M15 30c8.284 0 15-6.716 15-15 0-8.284-6.716-15-15-15C6.716 0 0 6.716 0 15c0 8.284 6.716 15 15 15zm6.248-20.828A14.61 14.61 0 0 0 17.534 8c-.16.29-.347.681-.476.992a13.572 13.572 0 0 0-4.115 0c-.129-.31-.32-.701-.481-.992a14.562 14.562 0 0 0-3.717 1.175c-2.35 3.569-2.987 7.048-2.669 10.479a14.82 14.82 0 0 0 4.555 2.345c.367-.508.694-1.047.975-1.615a9.572 9.572 0 0 1-1.536-.75c.13-.097.255-.197.377-.3 2.962 1.392 6.18 1.392 9.106 0 .123.103.25.203.377.3a9.548 9.548 0 0 1-1.54.752c.282.566.608 1.107.976 1.614a14.791 14.791 0 0 0 4.557-2.346c.374-3.977-.638-7.425-2.675-10.482zm-9.238 8.372c-.89 0-1.618-.834-1.618-1.85 0-1.015.713-1.85 1.618-1.85.905 0 1.634.833 1.618 1.85.002 1.016-.713 1.85-1.618 1.85zm5.98 0c-.889 0-1.618-.834-1.618-1.85 0-1.015.713-1.85 1.618-1.85.905 0 1.634.833 1.618 1.85 0 1.016-.713 1.85-1.618 1.85z" fill="#FFF" fill-rule="evenodd"/>
</svg>
