<svg width="30" height="30" viewBox="0 0 30 30" xmlns="http://www.w3.org/2000/svg">
    <path d="M15 0C6.717 0 0 6.717 0 15c0 8.283 6.717 15 15 15 8.283 0 15-6.717 15-15 0-8.283-6.714-15-15-15zM7.401 15.504l.063-.102 3.903-6.105c.057-.087.192-.078.234.018.651 1.461 1.215 3.279.951 4.41-.111.465-.42 1.095-.768 1.677a3.006 3.006 0 0 1-.147.249.132.132 0 0 1-.111.057H7.515a.133.133 0 0 1-.114-.204zm17.391 2.1a.136.136 0 0 1-.081.126c-.303.129-1.338.606-1.767 1.203-1.098 1.527-1.935 3.711-3.81 3.711h-7.818c-2.772 0-5.016-2.253-5.016-5.034v-.09c0-.072.06-.132.135-.132h4.356c.087 0 .15.078.144.165-.033.282.021.573.156.837.258.525.795.852 1.374.852h2.157v-1.683h-2.133a.138.138 0 0 1-.111-.216 16.49 16.49 0 0 0 .855-1.353 9.96 9.96 0 0 0 .537-1.074c.03-.066.054-.135.081-.201.042-.117.084-.228.114-.336.03-.093.057-.189.081-.279a4.38 4.38 0 0 0 .102-.984 4.59 4.59 0 0 0-.018-.408c-.006-.147-.024-.294-.042-.441-.012-.129-.036-.258-.06-.39a8.117 8.117 0 0 0-.123-.585l-.018-.075c-.036-.135-.069-.261-.111-.396a14.78 14.78 0 0 0-.411-1.215 6.515 6.515 0 0 0-.177-.444c-.09-.222-.183-.423-.267-.612a4.454 4.454 0 0 1-.117-.246c-.042-.09-.084-.18-.129-.267-.03-.066-.066-.129-.09-.189l-.264-.486c-.036-.066.024-.147.096-.126l1.65.447h.012l.216.063.24.066.087.024v-.978c0-.474.378-.858.849-.858.234 0 .447.096.597.252a.862.862 0 0 1 .249.606v1.455l.177.048c.012.006.027.012.039.021.042.03.105.078.183.138.063.048.129.108.207.171a12.94 12.94 0 0 1 .717.63c.267.249.567.54.855.864.081.093.159.183.24.282.078.099.165.195.237.291.099.129.201.264.294.405.042.066.093.135.132.201.12.177.222.36.321.543.042.084.084.177.12.267.111.246.198.495.252.747.018.054.03.111.036.165v.012c.018.072.024.15.03.231a2.571 2.571 0 0 1-.132 1.092c-.039.105-.075.213-.123.318a4.315 4.315 0 0 1-.33.627c-.042.075-.093.153-.141.228-.054.078-.111.153-.159.225a4.863 4.863 0 0 1-.216.276c-.066.09-.132.18-.207.261a7.035 7.035 0 0 1-.306.348c-.06.072-.126.147-.195.213-.066.075-.135.141-.195.201-.105.105-.189.183-.261.252l-.171.153a.127.127 0 0 1-.09.036h-1.314v1.683h1.653c.369 0 .72-.129 1.005-.372.096-.084.519-.45 1.02-1.002a.118.118 0 0 1 .063-.039l4.563-1.32a.134.134 0 0 1 .171.129v.966z" fill="#FFF" fill-rule="nonzero"/>
</svg>
