<svg width="30" height="30" viewBox="0 0 30 30" xmlns="http://www.w3.org/2000/svg">
    <path d="M15 30c8.284 0 15-6.716 15-15 0-8.284-6.716-15-15-15C6.716 0 0 6.716 0 15c0 8.284 6.716 15 15 15zm-2.937-7c6.992 0 10.816-5.77 10.816-10.774 0-.164-.003-.327-.01-.49a7.714 7.714 0 0 0 1.896-1.96 7.604 7.604 0 0 1-2.183.596 3.803 3.803 0 0 0 1.671-2.095 7.642 7.642 0 0 1-2.414.92A3.804 3.804 0 0 0 19.064 8a3.795 3.795 0 0 0-3.703 4.65 10.808 10.808 0 0 1-7.836-3.957 3.78 3.78 0 0 0 1.177 5.055 3.785 3.785 0 0 1-1.722-.473v.048a3.792 3.792 0 0 0 3.05 3.712 3.82 3.82 0 0 1-1.718.065 3.804 3.804 0 0 0 3.552 2.63 7.646 7.646 0 0 1-4.722 1.621c-.306 0-.61-.017-.907-.052A10.792 10.792 0 0 0 12.063 23" fill="#FFF" fill-rule="evenodd"/>
</svg>
