<svg width="31" height="30" viewBox="0 0 31 30" xmlns="http://www.w3.org/2000/svg">
    <path d="M15.94 0c8.285 0 15 6.716 15 15 0 8.284-6.715 15-15 15-8.284 0-15-6.716-15-15 0-8.284 6.716-15 15-15zm1.44 20.754c-.37-.09-1.035-.115-1.434-.053-.927.143-1.944.611-2.762 1.27l-.244.196.214.032c1.117.166 1.418.313 2.192 1.074.446.438.596.535.966.625.543.132 1.078-.11 1.262-.572.082-.207.07-.549-.023-.72-.224-.409-.876-.54-1.192-.242-.262.25-.186.625.14.69.076.015.074.012-.018-.028-.143-.062-.205-.147-.206-.283-.002-.319.38-.498.737-.345.26.112.364.259.364.516 0 .395-.353.694-.764.645a1.142 1.142 0 0 1-.632-.315c-.363-.391-.222-1.008.284-1.245.386-.18.898-.135 1.295.113.456.285.65.545 1.043 1.4.128.278.293.591.366.696.372.531.819.792 1.356.792.296 0 .52-.052.8-.185.208-.1.503-.288.482-.308a.79.79 0 0 0-.192.057c-.587.218-1.183.203-1.53-.039-.217-.152-.393-.455-.484-.834a17.137 17.137 0 0 1-.115-.644c-.12-.732-.236-1.06-.505-1.438-.276-.386-.806-.71-1.4-.855zm4.035-4.087c-.016 0-.043.05-.06.11-.154.573-.09 1.187.193 1.823l.058.125c.13.27.303.556.803 1.34.496.779.742 1.24.862 1.617.197.617.167 1.17-.093 1.74-.062.135-.103.245-.092.245.011 0 .113-.053.226-.118.774-.44 1.317-1.192 1.55-2.151.074-.304.103-1.03.054-1.333-.088-.533-.27-.97-.565-1.354-.337-.438-.832-.822-1.7-1.317-.696-.397-.958-.552-1.088-.643a.565.565 0 0 0-.148-.084zM6.941 3.333c-.007 0 .166.213.384.474 2.608 3.113 6.63 7.961 6.83 8.233.164.224.102.425-.18.583-.157.088-.48.177-.642.177a.83.83 0 0 1-.538-.227c-.107-.099-.534-.727-1.522-2.234a163.937 163.937 0 0 0-1.406-2.127c-.04-.037-.04-.036 1.329 2.371.858 1.512 1.148 2.046 1.148 2.117 0 .146-.04.222-.222.422-.304.334-.44.708-.538 1.484-.11.869-.42 1.483-1.276 2.534-.501.615-.584.728-.71.976-.16.312-.203.487-.221.881-.019.417.018.686.147 1.085.114.349.232.579.534 1.04.261.398.412.693.412.809 0 .092.018.092.422.002.968-.215 1.755-.593 2.197-1.057.273-.287.338-.445.34-.838.001-.257-.008-.31-.079-.459-.115-.24-.324-.44-.786-.751-.605-.407-.863-.734-.934-1.184-.059-.37.01-.63.344-1.32.346-.714.432-1.018.49-1.737.037-.465.09-.648.225-.796.142-.153.27-.205.62-.252.571-.077.935-.222 1.234-.493.26-.235.368-.462.385-.803l.012-.259-.145-.166a407.98 407.98 0 0 0-3.064-3.336l-.416-.45-.21-.227-.422-.455C8.79 5.304 6.957 3.333 6.941 3.333zm13.133 13 .055.16c.03.088.078.287.105.444.174 1-.369 1.807-1.425 2.12a1.873 1.873 0 0 1-.12.03l-.194.039a22.86 22.86 0 0 1-.665.117c-.863.139-1.248.237-1.635.417-.274.128-.607.32-.587.339a.402.402 0 0 0 .14-.033c.487-.165 1.03-.251 1.856-.293.327-.016.7-.042.827-.058.736-.09 1.245-.305 1.641-.695.221-.217.352-.42.458-.704.067-.181.077-.248.077-.569 0-.326-.008-.386-.08-.587a1.773 1.773 0 0 0-.35-.615l-.103-.112zm-9.932 2.628c0-.16.292-.217.48-.095.198.13.261.396.143.603-.114.198-.331.263-.485.145-.095-.074-.101-.182-.018-.304.081-.121.074-.18-.03-.233-.062-.031-.09-.067-.09-.116zm8.813-6.294c-.008 0-.015.157-.015.348 0 1.304.78 2.077 2.993 2.967 1.474.592 2.077.899 2.526 1.284.394.339.63.791.652 1.255.004.087.02.15.037.145.06-.019.287-.525.36-.805.095-.356.129-1.03.07-1.389-.199-1.237-1.034-2.145-2.385-2.592-.425-.141-.886-.237-1.705-.357-1.391-.203-1.894-.356-2.343-.716a1.682 1.682 0 0 0-.19-.14zM15.3 13.689c-.293.074-.577.329-.665.596-.054.163-.023.449.057.537.13.142.256.18.596.178.666-.004 1.245-.239 1.313-.532.055-.24-.2-.574-.55-.72a1.569 1.569 0 0 0-.751-.059zm-.174.393c0-.259.503-.397.836-.23.174.088.22.218.117.337-.071.083-.29.161-.45.161-.24 0-.503-.14-.503-.268zm.253-5.645c-.338-.081-.83-.125-1.037-.093-.109.017-.099.021.131.057.84.133 1.496.47 2.164 1.114.294.283.589.635 1.067 1.271 1.076 1.432 1.532 1.83 2.438 2.13.532.176 1.07.258 2.018.309 1.05.056 1.447.142 1.822.393.208.14.37.313.532.568l.094.147-.02-.162c-.075-.624-.514-1.5-1.073-2.142l-.102-.117-.051.235c-.13.592-.41 1.018-.67 1.019a.336.336 0 0 1-.3-.193c-.058-.14-.053-.191.033-.354.157-.298.196-.698.118-1.22-.022-.151-.055-.292-.073-.314-.057-.07-.51-.337-.798-.472-1.045-.49-2.294-.649-3.522-.449l-.292.048-.204-.23c-.767-.866-1.485-1.354-2.275-1.545zm7.442-.104c-.007 0-.052.083-.1.183-.12.254-.18.533-.206.954-.016.272-.032.365-.066.377-.05.018-.117-.001-.527-.151-.276-.101-.96-.292-.98-.273-.006.005.138.072.318.148.18.077.473.221.651.321.703.396.822.627.823 1.587 0 .478-.006.541-.068.686-.083.193-.069.23.023.059.171-.317.242-.634.252-1.128.006-.317.016-.384.063-.428.051-.049.064-.05.147-.009.123.06.682.484.925.701l.199.178-.199-.249a10.59 10.59 0 0 0-.67-.707c-.553-.538-.596-.61-.673-1.107-.06-.393-.046-.73.042-.977a.603.603 0 0 0 .046-.165zm-8.518.334-.02.216c-.062.697.228 1.63.696 2.24.363.471.927.838 1.342.873.273.023.354-.057.231-.227-.17-.235-.381-.598-.437-.753a7.844 7.844 0 0 1-.167-.634c-.195-.86-.387-1.194-.831-1.449a2.78 2.78 0 0 0-.708-.248l-.106-.018z" fill="#FFF" fill-rule="evenodd"/>
</svg>
