<?xml version="1.0" encoding="UTF-8" standalone="no"?>
<svg
   width="14"
   height="13"
   viewBox="0 0 14 13"
   version="1.1"
   id="svg11"
   sodipodi:docname="up.svg"
   inkscape:version="1.1.2 (b8e25be8, 2022-02-05)"
   xmlns:inkscape="http://www.inkscape.org/namespaces/inkscape"
   xmlns:sodipodi="http://sodipodi.sourceforge.net/DTD/sodipodi-0.dtd"
   xmlns="http://www.w3.org/2000/svg"
   xmlns:svg="http://www.w3.org/2000/svg">
  <defs
     id="defs15" />
  <sodipodi:namedview
     id="namedview13"
     pagecolor="#ffffff"
     bordercolor="#666666"
     borderopacity="1.0"
     inkscape:pageshadow="2"
     inkscape:pageopacity="0.0"
     inkscape:pagecheckerboard="0"
     showgrid="false"
     inkscape:zoom="55.307692"
     inkscape:cx="6.9972184"
     inkscape:cy="6.716968"
     inkscape:window-width="1383"
     inkscape:window-height="969"
     inkscape:window-x="0"
     inkscape:window-y="44"
     inkscape:window-maximized="0"
     inkscape:current-layer="svg11" />
  <path
     d="M13.25 0v11h-2V3.75h-.75V5H9v1.5H7.75v1.25H6.5V9H5v1.5H3.75v1.25H2.5V13H0v-2.5h1.25V9.25H2.5V8H4V6.5h1.25V5.25H6.5V4H8V2.5h1.25V2h-7V0h11z"
     fill="#00EF55"
     fill-rule="nonzero"
     id="path9" />
  <path
     style="fill:#000000;stroke-width:0.0180807"
     d="M 0.00904033,11.752434 V 10.504868 H 0.63282337 1.2566064 V 9.8810848 9.2573018 h 0.623783 0.6237831 V 8.6335188 8.0097357 H 3.2545202 4.0048679 V 7.259388 6.5090403 h 0.623783 0.623783 V 5.8852573 5.2614743 H 5.876217 6.5 V 4.6376912 4.0139082 H 7.2503477 8.0006954 V 3.2635605 2.5132128 H 8.6335188 9.2663421 V 2.2510431 1.9888734 H 5.7586926 2.2510431 V 0.99443672 0 h 5.496523 5.4965229 V 5.4965229 10.993046 H 12.249652 11.255216 V 7.367872 3.7426982 h -0.379694 -0.379694 v 0.623783 0.6237831 H 9.7454798 8.9951321 V 5.740612 6.4909597 h -0.623783 -0.623783 v 0.623783 0.623783 H 7.123783 6.5 v 0.6237831 0.623783 H 5.7496523 4.9993046 V 9.7364395 10.486787 H 4.3664812 3.7336579 v 0.623783 0.623783 H 3.1098748 2.4860918 V 12.367177 13 H 1.2475661 0.00904033 Z"
     id="path171" />
</svg>
